<?xml version="1.0" encoding="utf-8"?>

<!-- Uploaded to: SVG Repo, www.svgrepo.com, Generator: SVG Repo Mixer Tools -->
<svg width="800px" height="800px" viewBox="-0.34 0 47.01 47.01" xmlns="http://www.w3.org/2000/svg">
  <g id="_11" data-name="11" transform="translate(-683.438 -300.466)">
    <path id="Path_198" data-name="Path 198"
      d="M683.658,342.464a1.337,1.337,0,0,0,.382,1.852l4.467,2.94a1.336,1.336,0,0,0,1.851-.382l6.909-10.44a1.337,1.337,0,0,0-.382-1.852l-4.467-2.94a1.337,1.337,0,0,0-1.852.382Z"
      fill="#04C89A" />
    <g id="Group_266" data-name="Group 266">
      <path id="Path_200" data-name="Path 200"
        d="M708.94,332.009l.974-1.2,3.445,2.654a18.637,18.637,0,0,0,1.56-1.342l-5.979-4.745.974-1.2L715.99,331a18.378,18.378,0,0,0,1.291-1.647l-3.709-2.749.973-1.2,3.564,2.641a18.409,18.409,0,1,0-6.076,6.343Z"
        fill="#04C89A" />
      <path id="Path_199" data-name="Path 199"
        d="M719.506,337.825a5.131,5.131,0,1,0,5.131-5.131A5.13,5.13,0,0,0,719.506,337.825Z"
        fill="#553682" />
      <g id="Group_265" data-name="Group 265">
        <path id="Path_201" data-name="Path 201"
          d="M720.433,329.77l-2.324-1.722q-.389.672-.828,1.306l2.155,1.6Z" fill="#553682" />
        <path id="Path_202" data-name="Path 202"
          d="M717.149,331.921,715.99,331q-.512.584-1.071,1.121l1.234.98Z" fill="#553682" />
        <path id="Path_203" data-name="Path 203"
          d="M716.4,335.808l-3.042-2.344q-.642.492-1.326.927l3.372,2.6Z" fill="#553682" />
      </g>
    </g>
  </g>
</svg>