<?xml version="1.0" encoding="utf-8"?>
<!-- Generator: Adobe Illustrator 19.0.0, SVG Export Plug-In . SVG Version: 6.00 Build 0)  -->
<svg version="1.1" id="Layer_1" xmlns="http://www.w3.org/2000/svg" xmlns:xlink="http://www.w3.org/1999/xlink" x="0px" y="0px"
	 viewBox="0 0 500 500" style="enable-background:new 0 0 500 500;" xml:space="preserve">
<style type="text/css">
	.st0{fill:#0E0E11;}
	.st1{fill:#FFFFFF;}
	.st2{fill:#2091C3;}
	.st3{fill:#FAEC32;}
	.st4{fill:#D0352A;}
</style>
<g id="XMLID_1_">
	<path id="XMLID_2_" class="st0" d="M250,67.5c100.8,0,182.5,81.7,182.5,182.5c0,100.8-81.7,182.5-182.5,182.5S67.5,350.8,67.5,250
		C67.5,149.2,149.2,67.5,250,67.5"/>
	<path id="XMLID_3_" class="st1" d="M171.8,202c-30.9,0-56,25.1-56,56c0,11.5,3.5,22.2,9.4,31.1l55.4-24.2l23.1-10.2l0,0l22.6-9.9
		C220.4,220.3,198.2,202,171.8,202z M139.9,261c-0.1-1-0.1-1.9-0.1-2.9c0-17.7,14.4-32.1,32.1-32.1c9.6,0,18.2,4.2,24.1,10.9
		L139.9,261z"/>
	<path id="XMLID_6_" class="st1" d="M211,298.2c-20.1,19-46.6,20.9-69.9,6.8l13.2-20c13.3,7.9,26.6,6.6,40-3.9L211,298.2z"/>
	<path id="XMLID_7_" class="st1" d="M233.8,284.3l-0.1-106h20.1v103.1c0,1,0.1,1.9,1.4,2.4l17.5,6.8l-7.9,20.5l-20.5-8.7
		C236.5,299.1,233.8,294.3,233.8,284.3z"/>
	<path id="XMLID_8_" class="st2" d="M309.4,282.5c-7.5-5.9-12.4-15-12.4-25.3c0-9.1,3.8-17.4,10-23.2l-13-21
		c-13,10.3-21.4,26.3-21.4,44.2c0,19.3,9.7,36.4,24.5,46.5L309.4,282.5"/>
	<path id="XMLID_9_" class="st3" d="M318.2,227.1c3.4-1.2,7-1.9,10.8-1.9c13.7,0,25.4,8.6,29.9,20.7l24.8-2.1
		c-6-24.7-28.2-43-54.8-43c-7.5,0-14.6,1.5-21.2,4.1L318.2,227.1"/>
	<path id="XMLID_10_" class="st4" d="M360.9,258.8c-0.8,16.9-14.8,30.4-31.9,30.4c-2.7,0-5.3-0.3-7.8-1l-9.7,22.6
		c5.5,1.8,11.4,2.8,17.5,2.8c30.4,0,55.1-24,56.3-54.1L360.9,258.8"/>
</g>
</svg>
